HIERARCHY
ROOT Hips
{
  OFFSET 5.80788e-005 67.184 3.4734
  CHANNELS 6 Xposition Yposition Zposition Zrotation Xrotation Yrotation
  JOINT Chest
  {
    OFFSET 0 8.7983 -4.7612
    CHANNELS 6 Xposition Yposition Zposition Zrotation Xrotation Yrotation
    JOINT Chest2
    {
      OFFSET 0 8.0291 0.4195
      CHANNELS 6 Xposition Yposition Zposition Zrotation Xrotation Yrotation
      JOINT Chest3
      {
        OFFSET 0 9.9351 -2.2114
        CHANNELS 6 Xposition Yposition Zposition Zrotation Xrotation Yrotation
        JOINT Neck
        {
          OFFSET 0 22.3885 -0.4656
          CHANNELS 6 Xposition Yposition Zposition Zrotation Xrotation Yrotation
          JOINT Head
          {
            OFFSET -0.0001 12.643 3.4389
            CHANNELS 6 Xposition Yposition Zposition Zrotation Xrotation Yrotation
            End Site
            {
              OFFSET 0.0001 17.6655 0.5274
            }
          }
        }
        JOINT LeftCollar
        {
          OFFSET 2.2603 21.606 7.4023
          CHANNELS 6 Xposition Yposition Zposition Zrotation Xrotation Yrotation
          JOINT LeftShoulder
          {
            OFFSET 13.5163 -1.1332 -5.0146
            CHANNELS 6 Xposition Yposition Zposition Zrotation Xrotation Yrotation
            JOINT LeftElbow
            {
              OFFSET -0.0995 -28.05 -0.2431
              CHANNELS 6 Xposition Yposition Zposition Zrotation Xrotation Yrotation
              JOINT LeftWrist
              {
                OFFSET 0.0679 -23.3996 -0.1402
                CHANNELS 6 Xposition Yposition Zposition Zrotation Xrotation Yrotation
                JOINT LeftFinger1
                {
                  OFFSET 0.7932 -9.069 2.5189
                  CHANNELS 6 Xposition Yposition Zposition Zrotation Xrotation Yrotation
                  JOINT LeftFinger11
                  {
                    OFFSET -0.8272 -3.3923 0.5977
                    CHANNELS 6 Xposition Yposition Zposition Zrotation Xrotation Yrotation
                    JOINT LeftFinger12
                    {
                      OFFSET -0.5649 -2.3158 0.4082
                      CHANNELS 6 Xposition Yposition Zposition Zrotation Xrotation Yrotation
                      End Site
                      {
                        OFFSET -0.4919 -1.6479 0.2673
                      }
                    }
                  }
                }
                JOINT LeftFinger2
                {
                  OFFSET 0.9159 -9.2044 0.2193
                  CHANNELS 6 Xposition Yposition Zposition Zrotation Xrotation Yrotation
                  JOINT LeftFinger21
                  {
                    OFFSET 0.0117 -4.1944 -0.0248
                    CHANNELS 6 Xposition Yposition Zposition Zrotation Xrotation Yrotation
                    JOINT LeftFinger22
                    {
                      OFFSET 0.0071 -2.3249 -0.0142
                      CHANNELS 6 Xposition Yposition Zposition Zrotation Xrotation Yrotation
                      End Site
                      {
                        OFFSET -0.1475 -2.0882 0.0028
                      }
                    }
                  }
                }
                JOINT LeftFinger3
                {
                  OFFSET 0.6113 -8.7231 -2.0637
                  CHANNELS 6 Xposition Yposition Zposition Zrotation Xrotation Yrotation
                  JOINT LeftFinger31
                  {
                    OFFSET -0.1927 -3.8059 -0.2383
                    CHANNELS 6 Xposition Yposition Zposition Zrotation Xrotation Yrotation
                    JOINT LeftFinger32
                    {
                      OFFSET -0.1091 -2.1688 -0.1362
                      CHANNELS 6 Xposition Yposition Zposition Zrotation Xrotation Yrotation
                      End Site
                      {
                        OFFSET -0.2358 -1.9176 -0.0906
                      }
                    }
                  }
                }
                JOINT LeftFinger4
                {
                  OFFSET -0.6151 -8.0947 -3.5641
                  CHANNELS 6 Xposition Yposition Zposition Zrotation Xrotation Yrotation
                  JOINT LeftFinger41
                  {
                    OFFSET -0.4882 -2.341 -0.6462
                    CHANNELS 6 Xposition Yposition Zposition Zrotation Xrotation Yrotation
                    JOINT LeftFinger42
                    {
                      OFFSET -0.3575 -1.7167 -0.4742
                      CHANNELS 6 Xposition Yposition Zposition Zrotation Xrotation Yrotation
                      End Site
                      {
                        OFFSET -0.4187 -1.5237 -0.3496
                      }
                    }
                  }
                }
                JOINT LeftFinger0
                {
                  OFFSET -1.42 -1.8761 1.4223
                  CHANNELS 6 Xposition Yposition Zposition Zrotation Xrotation Yrotation
                  JOINT LeftFinger01
                  {
                    OFFSET -1.1471 -3.4929 2.6334
                    CHANNELS 6 Xposition Yposition Zposition Zrotation Xrotation Yrotation
                    JOINT LeftFinger02
                    {
                      OFFSET -0.823 -2.3 1.6571
                      CHANNELS 6 Xposition Yposition Zposition Zrotation Xrotation Yrotation
                      End Site
                      {
                        OFFSET -0.5822 -1.6914 1.1582
                      }
                    }
                  }
                }
              }
            }
          }
        }
        JOINT RightCollar
        {
          OFFSET -2.2603 21.606 7.4023
          CHANNELS 6 Xposition Yposition Zposition Zrotation Xrotation Yrotation
          JOINT RightShoulder
          {
            OFFSET -13.5187 -1.1334 -5.0155
            CHANNELS 6 Xposition Yposition Zposition Zrotation Xrotation Yrotation
            JOINT RightElbow
            {
              OFFSET 0.0994 -28.0499 -0.2431
              CHANNELS 6 Xposition Yposition Zposition Zrotation Xrotation Yrotation
              JOINT RightWrist
              {
                OFFSET -0.0679 -23.3996 -0.1402
                CHANNELS 6 Xposition Yposition Zposition Zrotation Xrotation Yrotation
                JOINT RightFinger1
                {
                  OFFSET -0.7932 -9.0691 2.5189
                  CHANNELS 6 Xposition Yposition Zposition Zrotation Xrotation Yrotation
                  JOINT RightFinger11
                  {
                    OFFSET 0.8272 -3.3923 0.5977
                    CHANNELS 6 Xposition Yposition Zposition Zrotation Xrotation Yrotation
                    JOINT RightFinger12
                    {
                      OFFSET 0.565 -2.3158 0.4082
                      CHANNELS 6 Xposition Yposition Zposition Zrotation Xrotation Yrotation
                      End Site
                      {
                        OFFSET 0.4919 -1.6479 0.2673
                      }
                    }
                  }
                }
                JOINT RightFinger2
                {
                  OFFSET -0.916 -9.2044 0.2193
                  CHANNELS 6 Xposition Yposition Zposition Zrotation Xrotation Yrotation
                  JOINT RightFinger21
                  {
                    OFFSET -0.0117 -4.1944 -0.0248
                    CHANNELS 6 Xposition Yposition Zposition Zrotation Xrotation Yrotation
                    JOINT RightFinger22
                    {
                      OFFSET -0.0071 -2.3249 -0.0142
                      CHANNELS 6 Xposition Yposition Zposition Zrotation Xrotation Yrotation
                      End Site
                      {
                        OFFSET 0.1475 -2.0882 0.0028
                      }
                    }
                  }
                }
                JOINT RightFinger3
                {
                  OFFSET -0.6113 -8.7231 -2.0637
                  CHANNELS 6 Xposition Yposition Zposition Zrotation Xrotation Yrotation
                  JOINT RightFinger31
                  {
                    OFFSET 0.1927 -3.8059 -0.2383
                    CHANNELS 6 Xposition Yposition Zposition Zrotation Xrotation Yrotation
                    JOINT RightFinger32
                    {
                      OFFSET 0.1091 -2.1688 -0.1362
                      CHANNELS 6 Xposition Yposition Zposition Zrotation Xrotation Yrotation
                      End Site
                      {
                        OFFSET 0.2358 -1.9176 -0.0906
                      }
                    }
                  }
                }
                JOINT RightFinger4
                {
                  OFFSET 0.6151 -8.0947 -3.564
                  CHANNELS 6 Xposition Yposition Zposition Zrotation Xrotation Yrotation
                  JOINT RightFinger41
                  {
                    OFFSET 0.4882 -2.341 -0.6462
                    CHANNELS 6 Xposition Yposition Zposition Zrotation Xrotation Yrotation
                    JOINT RightFinger42
                    {
                      OFFSET 0.3574 -1.7166 -0.4742
                      CHANNELS 6 Xposition Yposition Zposition Zrotation Xrotation Yrotation
                      End Site
                      {
                        OFFSET 0.4187 -1.5237 -0.3496
                      }
                    }
                  }
                }
                JOINT RightFinger0
                {
                  OFFSET 1.4199 -1.8761 1.4221
                  CHANNELS 6 Xposition Yposition Zposition Zrotation Xrotation Yrotation
                  JOINT RightFinger01
                  {
                    OFFSET 1.1472 -3.4929 2.6336
                    CHANNELS 6 Xposition Yposition Zposition Zrotation Xrotation Yrotation
                    JOINT RightFinger02
                    {
                      OFFSET 0.8229 -2.3 1.6571
                      CHANNELS 6 Xposition Yposition Zposition Zrotation Xrotation Yrotation
                      End Site
                      {
                        OFFSET 0.5822 -1.6914 1.1582
                      }
                    }
                  }
                }
              }
            }
          }
        }
      }
    }
  }
  JOINT RightHip
  {
    OFFSET -9.412 3.9771 -0.7758
    CHANNELS 6 Xposition Yposition Zposition Zrotation Xrotation Yrotation
    JOINT RightKnee
    {
      OFFSET -0.7531 -40.938 0
      CHANNELS 6 Xposition Yposition Zposition Zrotation Xrotation Yrotation
      JOINT RightAnkle
      {
        OFFSET 0 -40.1986 0
        CHANNELS 6 Xposition Yposition Zposition Zrotation Xrotation Yrotation
        JOINT RightToe
        {
          OFFSET 0 -4.4182 9.239
          CHANNELS 6 Xposition Yposition Zposition Zrotation Xrotation Yrotation
          End Site
          {
            OFFSET 0 0 6.1981
          }
        }
      }
    }
  }
  JOINT LeftHip
  {
    OFFSET 9.4119 3.9773 -0.7758
    CHANNELS 6 Xposition Yposition Zposition Zrotation Xrotation Yrotation
    JOINT LeftKnee
    {
      OFFSET 0.7532 -40.9383 0
      CHANNELS 6 Xposition Yposition Zposition Zrotation Xrotation Yrotation
      JOINT LeftAnkle
      {
        OFFSET 0 -40.1986 0
        CHANNELS 6 Xposition Yposition Zposition Zrotation Xrotation Yrotation
        JOINT LeftToe
        {
          OFFSET 0 -4.4182 9.239
          CHANNELS 6 Xposition Yposition Zposition Zrotation Xrotation Yrotation
          End Site
          {
            OFFSET 0 0 6.1981
          }
        }
      }
    }
  }
}
MOTION
Frames:	4
Frame Time:	0.0333333
5.80788e-005 67.184 3.4734 0 0 -0 0 8.7983 -4.7612 0 0 -0 0 8.0291 0.4195 0 0 -0 0 9.9351 -2.2114 0 0 -0 0 22.3885 -0.4656 0 0 -0 -0.0001 12.643 3.4389 0 0 -0 2.2603 21.606 7.4023 0 0 -12.5014 13.5163 -1.1332 -5.0146 88.1196 14.2451 10.6914 -0.0995 -28.05 -0.2431 -0.00160068 -0.00239207 0.000740045 0.0679 -23.3996 -0.1402 -8.4365e-005 7.00714e-005 -9.52055e-007 0.7932 -9.069 2.5189 9.93923e-017 -1.98785e-016 -1.59028e-015 -0.8272 -3.3923 0.5977 9.93923e-017 -5.96354e-016 -1.59028e-015 -0.5649 -2.3158 0.4082 -9.93923e-017 -5.96354e-016 -1.59028e-015 0.9159 -9.2044 0.2193 9.93923e-017 -1.98785e-016 -1.59028e-015 0.0117 -4.1944 -0.0248 -0.0128176 0.00232552 8.52707e-005 0.0071 -2.3249 -0.0142 9.93923e-017 5.96354e-016 -0 0.6113 -8.7231 -2.0637 9.93923e-017 -1.98785e-016 -1.59028e-015 -0.1927 -3.8059 -0.2383 -0.0160551 0.00299681 0.000857156 -0.1091 -2.1688 -0.1362 -2.48481e-016 0 3.18055e-015 -0.6151 -8.0947 -3.5641 9.93923e-017 -1.98785e-016 -1.59028e-015 -0.4882 -2.341 -0.6462 -0.0125865 0.0031206 0.00282719 -0.3575 -1.7167 -0.4742 0 1.98785e-016 -0 -1.42 -1.8761 1.4223 9.93923e-017 -1.98785e-016 -1.59028e-015 -1.1471 -3.4929 2.6334 9.93923e-017 -5.96354e-016 -1.59028e-015 -0.823 -2.3 1.6571 -9.93923e-017 -5.96354e-016 -1.59028e-015 -2.2603 21.606 7.4023 -0.865644 0.16582 7.03859 -13.5187 -1.1334 -5.0155 -88.0329 10.2057 -10.5567 0.0994 -28.0499 -0.2431 0.0015593 -0.00248883 -0.000788628 -0.0679 -23.3996 -0.1402 7.87605e-005 4.10553e-005 1.24965e-005 -0.7932 -9.0691 2.5189 -3.97569e-016 -7.95139e-016 3.18055e-015 0.8272 -3.3923 0.5977 -1.98785e-016 -3.97569e-016 3.18055e-015 0.565 -2.3158 0.4082 -1.98785e-016 0 3.18055e-015 -0.916 -9.2044 0.2193 -3.97569e-016 -7.95139e-016 3.18055e-015 -0.0117 -4.1944 -0.0248 0.0129473 0.00231697 -8.70038e-005 -0.0071 -2.3249 -0.0142 9.93923e-017 -7.95139e-016 1.59028e-015 -0.6113 -8.7231 -2.0637 -3.97569e-016 -7.95139e-016 3.18055e-015 0.1927 -3.8059 -0.2383 0.0163314 0.00303369 -0.000872333 0.1091 -2.1688 -0.1362 3.97569e-016 7.95139e-016 -3.18055e-015 0.6151 -8.0947 -3.564 -3.97569e-016 -7.95139e-016 3.18055e-015 0.4882 -2.341 -0.6462 0.0145763 0.00367772 -0.00326275 0.3574 -1.7166 -0.4742 9.93923e-017 -3.97569e-016 -0 1.4199 -1.8761 1.4221 -3.97569e-016 -7.95139e-016 3.18055e-015 1.1472 -3.4929 2.6336 -1.98785e-016 -3.97569e-016 3.18055e-015 0.8229 -2.3 1.6571 -1.98785e-016 0 3.18055e-015 -9.412 3.9771 -0.7758 3.42485 1.36937 -0.0640303 -0.7531 -40.938 0 0.000136572 0.69354 0.00145564 1.77636e-015 -40.1986 -1.11022e-016 -3.42573 -2.06297 -0.0607933 8.88178e-016 -4.4182 9.239 -3.19502e-024 0 -1.48106e-024 9.4119 3.9773 -0.7758 -3.42498 1.36123 0.0639712 0.7532 -40.9383 2.22045e-016 -6.769e-005 0.712612 -0.0012277 8.88179e-016 -40.1986 0 3.42582 -2.07388 0.0612819 -8.88178e-016 -4.4182 9.239 2.55305e-023 0 -2.31416e-026 
3.49338e-005 48.6325 -23.4638 4.90975e-007 26.2936 6.52713e-008 0 8.7983 -4.7612 -1.26104 0.998974 -0.132236 0 8.0291 0.4195 -2.52034 2.00062 -0.242503 4.44089e-016 9.9351 -2.2114 -2.52034 2.00063 -0.242503 8.88179e-016 22.3885 -0.4656 -2.65602 -14.5378 -1.78277 -0.0001 12.643 3.4389 -6.38065 -6.36726 -2.40762 2.2603 21.606 7.4023 2.9086 -10.7925 -16.1706 13.5163 -1.1332 -5.0146 77.5703 -11.6585 34.3534 -0.0995 -28.05 -0.2431 -14.7278 -24.1133 -36.3674 0.0679 -23.3996 -0.1402 -9.02096 -1.9559 16.2256 0.7932 -9.069 2.5189 -1.59028e-015 -3.18055e-015 -1.59028e-015 -0.8272 -3.3923 0.5977 -3.18055e-015 6.36111e-015 -3.18055e-015 -0.5649 -2.3158 0.4082 1.59028e-015 -6.36111e-015 -6.36111e-015 0.9159 -9.2044 0.2193 -1.59028e-015 -3.18055e-015 -1.59028e-015 0.0117 -4.1944 -0.0248 -0.0127923 0.00232335 8.94266e-005 0.0071 -2.3249 -0.0142 1.59028e-015 -3.18055e-015 -3.18055e-015 0.6113 -8.7231 -2.0637 -1.59028e-015 -3.18055e-015 -1.59028e-015 -0.1927 -3.8059 -0.2383 -0.016033 0.00299576 0.000861696 -0.1091 -2.1688 -0.1362 6.36111e-015 6.36111e-015 -0 -0.6151 -8.0947 -3.5641 -1.59028e-015 -3.18055e-015 -1.59028e-015 -0.4882 -2.341 -0.6462 -0.0126101 0.00312582 0.00283288 -0.3575 -1.7167 -0.4742 -3.18055e-015 6.36111e-015 9.54166e-015 -1.42 -1.8761 1.4223 -1.59028e-015 -3.18055e-015 -1.59028e-015 -1.1471 -3.4929 2.6334 -3.18055e-015 6.36111e-015 -3.18055e-015 -0.823 -2.3 1.6571 1.59028e-015 -6.36111e-015 -6.36111e-015 -2.2603 21.606 7.4023 -0.77875 1.46018 16.3775 -13.5187 -1.1334 -5.0155 -88.1818 -18.4256 -40.7803 0.0994 -28.0499 -0.2431 16.4481 -42.8387 36.3647 -0.0679 -23.3996 -0.1402 8.51007 12.5332 -11.4676 -0.7932 -9.06911 2.5189 -3.18055e-015 0 -1.11319e-014 0.8272 -3.3923 0.5977 7.06225e-031 3.18055e-015 -1.27222e-014 0.565 -2.3158 0.4082 -3.5775e-006 -2.74531e-007 -3.76356e-006 -0.916 -9.2044 0.2193 -3.18055e-015 0 -1.11319e-014 -0.0117 -4.1944 -0.0248 0.0130119 0.00232821 -8.94901e-005 -0.0071 -2.3249 -0.0142 -2.14803e-006 -4.24115e-006 -3.02146e-006 -0.6113 -8.7231 -2.0637 -3.18055e-015 0 -1.11319e-014 0.1927 -3.8059 -0.2383 0.0162575 0.00300466 -0.000866981 0.1091 -2.1688 -0.1362 -3.22192e-006 -1.15432e-007 -4.53225e-006 0.6151 -8.0947 -3.564 -3.18055e-015 0 -1.11319e-014 0.4882 -2.341 -0.6462 0.0146008 0.00369046 -0.0032634 0.3574 -1.7166 -0.4742 -3.57688e-006 -2.75265e-006 -3.76388e-006 1.4199 -1.8761 1.4221 -3.18055e-015 0 -1.11319e-014 1.1472 -3.4929 2.6336 7.06225e-031 3.18055e-015 -1.27222e-014 0.8229 -2.3 1.6571 -3.5775e-006 -2.74531e-007 -3.76356e-006 -9.412 3.9771 -0.7758 -11.5318 -31.8417 -14.6132 -0.7531 -40.938 -3.55272e-015 0.871744 49.3494 -6.13715 -3.55271e-015 -40.1986 -5.32907e-015 -5.90092 7.57972 -1.98202 3.55271e-015 -4.4182 9.239 2.63144e-006 -1.04347e-005 3.35119e-006 9.4119 3.9773 -0.7758 11.5302 -31.8609 14.6117 0.7532 -40.9383 -1.77636e-015 -0.860935 49.3581 6.1354 -3.55271e-015 -40.1986 -1.77636e-015 5.89567 7.37191 1.97454 0 -4.4182 9.239 5.70075e-006 1.88028e-005 4.21806e-007 
-0.00013205 31.7377 -50.3423 -1.40479e-006 52.5872 1.06393e-006 2.71051e-020 8.7983 -4.7612 -2.54816 1.96936 -0.123258 0 8.0291 0.4195 -5.0966 3.94225 -0.158868 -8.88179e-016 9.9351 -2.2114 -5.09661 3.94226 -0.158867 -1.77636e-015 22.3885 -0.4656 -6.335 -29.0313 -3.94804 -0.0001 12.643 3.4389 -13.308 -12.7005 -4.90584 2.2603 21.606 7.4023 4.34491 -21.4488 -20.2495 13.5163 -1.1332 -5.0146 69.3069 -38.0482 58.5341 -0.0995 -28.05 -0.2431 -31.1559 -49.0425 -74.1452 0.0679 -23.3996 -0.1402 -17.8836 -4.03297 32.6345 0.7932 -9.069 2.5189 -9.54166e-015 0 -1.59028e-015 -0.8272 -3.3923 0.5977 -9.54166e-015 -6.36111e-015 -1.59028e-015 -0.5649 -2.3158 0.4082 -3.18055e-015 -3.18055e-015 4.77083e-015 0.9159 -9.2044 0.2193 -9.54166e-015 0 -1.59028e-015 0.0117 -4.1944 -0.0248 -0.0128522 0.00232419 8.25595e-005 0.0071 -2.3249 -0.0142 3.18055e-015 7.95139e-015 -1.59028e-015 0.6113 -8.7231 -2.0637 -9.54166e-015 0 -1.59028e-015 -0.1927 -3.8059 -0.2383 -0.0160216 0.00299474 0.000855138 -0.1091 -2.1688 -0.1362 1.27222e-014 0 4.77083e-015 -0.6151 -8.0947 -3.5641 -9.54166e-015 0 -1.59028e-015 -0.4882 -2.341 -0.6462 -0.0125817 0.00311733 0.00282397 -0.3575 -1.7167 -0.4742 -6.36111e-015 -1.59028e-015 -4.77083e-015 -1.42 -1.8761 1.4223 -9.54166e-015 0 -1.59028e-015 -1.1471 -3.4929 2.6334 -9.54166e-015 -6.36111e-015 -1.59028e-015 -0.823 -2.3 1.6571 -3.18055e-015 -3.18055e-015 4.77083e-015 -2.2603 21.606 7.4023 -1.12846 2.63937 25.7308 -13.5187 -1.1334 -5.0155 -87.4874 -47.6216 -69.2473 0.0994 -28.0499 -0.2431 92.0232 -81.568 131.402 -0.0679 -23.3996 -0.1402 16.842 24.9664 -22.9774 -0.7932 -9.0691 2.5189 9.54166e-015 -6.36111e-015 1.59028e-015 0.8272 -3.3923 0.5977 3.18055e-015 -1.59028e-015 -7.95139e-016 0.565 -2.3158 0.4082 3.18055e-015 7.95139e-015 3.57812e-015 -0.916 -9.2044 0.2193 9.54166e-015 -6.36111e-015 1.59028e-015 -0.0117 -4.1944 -0.0248 0.0129541 0.00231399 -8.84589e-005 -0.0071 -2.3249 -0.0142 -3.18055e-015 -4.77083e-015 -8.74653e-015 -0.6113 -8.7231 -2.0637 9.54166e-015 -6.36111e-015 1.59028e-015 0.1927 -3.8059 -0.2383 0.0163558 0.00303549 -0.000872002 0.1091 -2.1688 -0.1362 3.18055e-015 4.77083e-015 5.96354e-015 0.6151 -8.0947 -3.564 9.54166e-015 -6.36111e-015 1.59028e-015 0.4882 -2.341 -0.6462 0.0145816 0.00367779 -0.00326322 0.3574 -1.7166 -0.4742 6.36111e-015 6.36111e-015 -3.18055e-015 1.4199 -1.8761 1.4221 9.54166e-015 -6.36111e-015 1.59028e-015 1.1472 -3.4929 2.6336 3.18055e-015 -1.59028e-015 -7.95139e-016 0.8229 -2.3 1.6571 3.18055e-015 7.95139e-015 3.57812e-015 -9.412 3.9771 -0.7758 -51.4909 -55.9364 -47.0193 -0.7531 -40.938 7.10543e-015 121.482 82.0916 -129.398 0 -40.1986 1.77636e-015 -7.24872 18.5702 -4.2526 0 -4.4182 9.239 -2.4873e-006 -9.99797e-007 -5.28812e-007 9.4119 3.9773 -0.7758 51.5135 -55.9634 47.0407 0.7532 -40.9383 7.10543e-015 -121.537 82.0785 129.47 0 -40.1986 -3.55271e-015 7.26081 18.1491 4.22509 0 -4.4182 9.239 4.96564e-031 -4.77083e-015 5.96354e-015 
-0.000468664 20.8232 -68.6675 2.9781e-006 70.9928 -2.95147e-006 5.42101e-020 8.7983 -4.7612 -3.45882 2.64868 -0.0294484 0 8.0291 0.4195 -6.92738 5.29431 0.101488 1.77636e-015 9.9351 -2.2114 -6.92741 5.29434 0.101494 0 22.3885 -0.4656 -9.76932 -39.1648 -6.02054 -0.0001 12.643 3.4389 -18.4935 -17.0129 -6.73193 2.2603 21.606 7.4023 4.30551 -28.7782 -23.5561 13.5163 -1.1332 -5.0146 66.335 -56.6438 77.5564 -0.0995 -28.05 -0.2431 -47.7228 -66.8395 -105.402 0.0679 -23.3996 -0.1402 -24.012 -5.48083 44.2976 0.7932 -9.069 2.5189 -3.18055e-015 1.27222e-014 -0 -0.8272 -3.3923 0.5977 -4.77083e-015 1.11319e-014 -7.15625e-015 -0.5649 -2.3158 0.4082 -6.36111e-015 1.43125e-014 -1.59028e-015 0.9159 -9.2044 0.2193 -3.18055e-015 1.27222e-014 -0 0.0117 -4.1944 -0.0248 -0.0128163 0.00233212 8.34974e-005 0.0071 -2.3249 -0.0142 1.59028e-015 1.59028e-015 2.38542e-015 0.6113 -8.7231 -2.0637 -3.18055e-015 1.27222e-014 -0 -0.1927 -3.8059 -0.2383 -0.0160689 0.00300184 0.000857518 -0.1091 -2.1688 -0.1362 3.18055e-015 3.18055e-015 5.56597e-015 -0.6151 -8.0947 -3.5641 -3.18055e-015 1.27222e-014 -0 -0.4882 -2.341 -0.6462 -0.0125588 0.00312538 0.00282409 -0.3575 -1.7167 -0.4742 1.98626e-031 4.77083e-015 -2.38542e-015 -1.42 -1.8761 1.4223 -3.18055e-015 1.27222e-014 -0 -1.1471 -3.4929 2.6334 -4.77083e-015 1.11319e-014 -7.15625e-015 -0.823 -2.3 1.6571 -6.36111e-015 1.43125e-014 -1.59028e-015 -2.2603 21.606 7.4023 -1.61788 3.28284 32.2682 -13.5187 -1.1334 -5.0155 -84.2535 -68.0802 -86.269 0.0994 -28.0499 -0.2431 -169.372 -59.9635 -116.952 -0.0679 -23.3996 -0.1402 22.5012 33.5208 -30.999 -0.7932 -9.0691 2.5189 -6.06912e-031 -3.18055e-015 -1.09332e-014 0.8272 -3.3923 0.5977 3.03967e-006 -1.09028e-007 2.21524e-006 0.565 -2.3158 0.4082 3.97569e-016 0 -8.94531e-016 -0.916 -9.2044 0.2193 -6.06912e-031 -3.18055e-015 -1.09332e-014 -0.0117 -4.1944 -0.0248 0.0129598 0.00230363 -8.24336e-005 -0.0071 -2.3249 -0.0142 7.95139e-016 -4.77083e-015 -8.84592e-015 -0.6113 -8.7231 -2.0637 -6.06912e-031 -3.18055e-015 -1.09332e-014 0.1927 -3.8059 -0.2383 0.0163288 0.00302934 -0.000871763 0.1091 -2.1688 -0.1362 -3.97569e-016 0 -1.54058e-015 0.6151 -8.0947 -3.564 -6.06912e-031 -3.18055e-015 -1.09332e-014 0.4882 -2.341 -0.6462 0.0145837 0.00367422 -0.00326038 0.3574 -1.7166 -0.4742 -3.97569e-016 3.18055e-015 1.39149e-015 1.4199 -1.8761 1.4221 -6.06912e-031 -3.18055e-015 -1.09332e-014 1.1472 -3.4929 2.6336 3.03967e-006 -1.09028e-007 2.21524e-006 0.8229 -2.3 1.6571 3.97569e-016 0 -8.94531e-016 -9.412 3.9771 -0.7758 -99.4496 -58.8482 -87.1251 -0.7531 -40.938 0 161.203 53.4262 -169.852 0 -40.1986 -7.10543e-015 -6.79068 26.0286 -6.93541 2.66454e-015 -4.4182 9.239 7.03017e-006 5.36508e-006 -2.94057e-007 9.4119 3.9773 -0.7758 99.4936 -58.8665 87.1658 0.7532 -40.9383 0 -161.17 53.3981 169.841 0 -40.1986 0 6.8414 25.4447 6.87245 8.88179e-016 -4.4182 9.239 -4.77396e-006 -1.74771e-005 5.4721e-006 
